<?xml version="1.0" encoding="utf-8"?>
<!-- Generator: Adobe Illustrator 16.2.1, SVG Export Plug-In . SVG Version: 6.00 Build 0)  -->
<!DOCTYPE svg PUBLIC "-//W3C//DTD SVG 1.1//EN" "http://www.w3.org/Graphics/SVG/1.1/DTD/svg11.dtd">
<svg version="1.1" id="Layer_1" xmlns="http://www.w3.org/2000/svg" xmlns:xlink="http://www.w3.org/1999/xlink" x="0px" y="0px"
	 width="454.75px" height="85.827px" viewBox="0 0 454.75 85.827" enable-background="new 0 0 454.75 85.827" xml:space="preserve">
<rect x="-2" y="-1.506" fill="#00AEDA" width="458.75" height="88.333"/>
<path fill="#00BDE1" d="M111.861-2c35.316,14.84,72.623,27.315,111.67,31.523c44.096,4.548,82.056,0.537,118.453-5.951
	C325.315,15.986,308.623,6.118,291.921-2H111.861z"/>
<path fill="#77CFE9" d="M291.92-2c16.703,8.118,33.396,17.986,50.064,25.572c61.69-10.99,58.383-11.786,114.766-13.745V-2H291.92z"
	/>
<path fill="#00BDE1" d="M456.75,9.828c-56.383,1.958-53.075,2.754-114.766,13.744c37.782,17.209,77.429,32.937,114.766,46.99V9.828z
	"/>
</svg>
