<svg xmlns="http://www.w3.org/2000/svg" width="157" height="45" viewBox="0 0 157 45"><g fill="#fff"><path d="M20.583 9.957c.147.179.176.375-.067.577-.292.244-.699.039-1.05-.024-1.697-.322-6.839-1.239-8.867.447-1.111.926-.724 2.108-1.878 3.07-1.16.963-2.249.365-3.362 1.293-2.027 1.686-2.052 6.91-2.046 8.636.002.359.13.795-.165 1.04-.241.202-.433.138-.577-.039-.545-.653-3.739-11.663 1.74-16.226 5.478-4.562 15.726.572 16.272 1.226zm-18.3-1.391c1.262 0 2.283-1.022 2.283-2.286 0-1.259-1.021-2.28-2.283-2.28-1.261 0-2.283 1.021-2.283 2.281 0 1.263 1.022 2.285 2.283 2.285zM25.87 33.984c-.225.035-.411-.04-.461-.354-.056-.376.326-.62.565-.889 1.146-1.288 4.584-5.221 4.181-7.831-.223-1.428-1.434-1.702-1.665-3.189-.232-1.489.843-2.117.621-3.546-.403-2.609-4.87-5.318-6.353-6.202-.308-.182-.748-.299-.805-.676-.049-.312.106-.44.331-.477.844-.13 11.925 2.799 13.018 9.848 1.088 7.045-8.591 13.187-9.432 13.316zm12.562-11.515c1.261 0 2.283-1.024 2.283-2.284 0-1.26-1.022-2.282-2.283-2.282-1.26 0-2.285 1.021-2.285 2.282 0 1.259 1.025 2.284 2.285 2.284zM2.781 26.85c.086-.213.243-.332.538-.22.355.14.374.594.485.936.536 1.64 2.214 7.591 7.497 9.664 5.283 2.071 10.559-1.151 12.067-1.987.314-.176.635-.494.99-.355.294.115.329.309.245.524-.31.793-8.42 8.893-15.057 6.288-6.637-2.603-7.071-14.056-6.765-14.85zm9.676 9.475c1.259.007 2.289-1.003 2.297-2.265.012-1.262-1.003-2.294-2.263-2.303-1.259-.012-2.288 1.002-2.299 2.265-.01 1.262 1.002 2.289 2.265 2.303zM65.128 9.242v8.473h-.662c-.218-1.625-.607-2.92-1.171-3.883-.562-.964-1.364-1.728-2.403-2.294-1.041-.565-2.118-.851-3.23-.851-1.258 0-2.298.384-3.121 1.147-.822.764-1.232 1.633-1.232 2.607 0 .745.259 1.426.779 2.038.746.904 2.527 2.107 5.339 3.609 2.292 1.227 3.857 2.166 4.697 2.824.838.654 1.485 1.426 1.938 2.317.453.89.68 1.824.68 2.798 0 1.851-.722 3.449-2.165 4.788-1.443 1.342-3.3 2.009-5.57 2.009-.714 0-1.384-.053-2.011-.159-.375-.066-1.151-.285-2.329-.669-1.179-.385-1.922-.575-2.237-.575-.303 0-.54.093-.716.275-.175.183-.304.559-.388 1.128h-.662v-8.389h.662c.313 1.756.736 3.072 1.267 3.945.532.871 1.345 1.597 2.439 2.174 1.092.577 2.291.866 3.595.866 1.509 0 2.702-.396 3.578-1.189.875-.795 1.314-1.734 1.314-2.814 0-.603-.167-1.211-.498-1.823-.333-.612-.847-1.186-1.547-1.715-.472-.361-1.757-1.126-3.858-2.298-2.102-1.17-3.597-2.104-4.485-2.803-.889-.697-1.564-1.468-2.024-2.311-.46-.842-.69-1.768-.69-2.779 0-1.757.678-3.272 2.033-4.541 1.355-1.269 3.081-1.905 5.175-1.905 1.308 0 2.693.319 4.157.954.68.3 1.157.449 1.435.449.315 0 .573-.093.771-.279.201-.185.362-.561.482-1.124h.658zM83.292 28.01c-.445 2.188-1.324 3.864-2.629 5.031-1.309 1.164-2.754 1.743-4.34 1.743-1.887 0-3.533-.788-4.937-2.371-1.403-1.576-2.106-3.712-2.106-6.403 0-2.604.779-4.721 2.336-6.349 1.557-1.627 3.425-2.441 5.606-2.441 1.636 0 2.98.428 4.033 1.288 1.053.859 1.584 1.751 1.584 2.677 0 .457-.146.827-.445 1.109-.299.283-.715.423-1.248.423-.715 0-1.247-.231-1.598-.692-.221-.256-.363-.743-.432-1.46-.066-.717-.312-1.263-.737-1.641-.422-.364-1.011-.547-1.763-.547-1.212 0-2.189.447-2.928 1.346-.983 1.187-1.473 2.756-1.473 4.707 0 1.989.486 3.743 1.461 5.266.972 1.52 2.288 2.281 3.944 2.281 1.185 0 2.25-.396 3.195-1.188.664-.549 1.312-1.564 1.938-3.029l.539.25zM90.398 17.22v3.713c1.38-2.476 2.795-3.713 4.244-3.713.661 0 1.204.201 1.64.603.43.403.647.87.647 1.399 0 .469-.156.864-.472 1.189-.314.325-.686.486-1.118.486-.42 0-.893-.207-1.413-.618-.521-.414-.906-.622-1.158-.622-.217 0-.449.122-.701.361-.539.494-1.093 1.305-1.669 2.439v7.947c0 .923.118 1.617.348 2.091.158.326.439.597.847.812.4.213.982.318 1.741.318v.664h-8.556v-.664c.842 0 1.471-.131 1.88-.397.301-.196.514-.508.633-.932.06-.207.09-.798.09-1.767v-6.41c0-1.919-.041-3.065-.117-3.431-.077-.366-.222-.634-.431-.802-.209-.17-.471-.253-.78-.253-.375 0-.795.09-1.259.272l-.183-.663 5.024-2.023h.763zM104.141 17.22v13.31c0 1.037.072 1.73.222 2.07.146.349.366.603.661.775.287.167.82.25 1.596.25v.664h-8.018v-.664c.8 0 1.341-.078 1.618-.233.276-.158.497-.415.657-.78.162-.363.245-1.057.245-2.082v-6.327c0-1.815-.055-2.994-.162-3.529-.083-.39-.217-.662-.396-.813-.182-.149-.427-.227-.738-.227-.337 0-.741.09-1.224.272l-.254-.663 4.996-2.023h.797zm-1.501-8.641c.507 0 .938.179 1.296.536.356.357.533.788.533 1.295 0 .506-.177.941-.533 1.304-.358.364-.789.544-1.296.544s-.943-.181-1.306-.544c-.36-.362-.542-.797-.542-1.304 0-.508.177-.938.533-1.295.356-.357.796-.536 1.315-.536zM107.208 19.327l5.098-2.026h.688v3.844c.854-1.452 1.713-2.47 2.573-3.052.863-.583 1.768-.873 2.722-.873 1.66 0 3.044.65 4.152 1.952 1.362 1.595 2.042 3.668 2.042 6.225 0 2.858-.818 5.22-2.455 7.09-1.35 1.533-3.046 2.298-5.097 2.298-.892 0-1.66-.126-2.311-.377-.481-.179-1.025-.539-1.627-1.078v5.051c0 1.142.069 1.864.208 2.172.14.31.381.557.727.739.341.18.97.271 1.877.271v.664h-8.724v-.664h.456c.669.014 1.236-.112 1.714-.376.228-.133.407-.348.533-.643.128-.294.194-1.044.194-2.243v-15.749c0-1.069-.05-1.747-.146-2.036-.097-.287-.25-.502-.459-.646-.211-.146-.494-.218-.854-.218-.288 0-.654.085-1.098.254l-.213-.579zm5.787 2.888v6.202c0 1.342.055 2.225.163 2.646.168.702.58 1.317 1.237 1.852.654.531 1.48.799 2.479.799 1.202 0 2.179-.477 2.925-1.416.974-1.234 1.462-2.968 1.462-5.205 0-2.537-.554-4.489-1.661-5.855-.769-.944-1.686-1.415-2.74-1.415-.58 0-1.153.147-1.717.435-.435.217-1.152.869-2.148 1.957zM125.724 19.327l5.101-2.026h.687v3.844c.856-1.452 1.714-2.47 2.575-3.052.86-.583 1.767-.873 2.717-.873 1.663 0 3.048.65 4.155 1.952 1.365 1.595 2.044 3.668 2.044 6.225 0 2.858-.821 5.22-2.459 7.09-1.349 1.533-3.047 2.298-5.096 2.298-.888 0-1.662-.126-2.312-.377-.479-.179-1.025-.539-1.624-1.078v5.051c0 1.142.068 1.864.209 2.172.139.31.379.557.725.739.343.18.97.271 1.876.271v.664h-8.72v-.664h.453c.668.014 1.238-.112 1.712-.376.23-.133.407-.348.535-.643.128-.294.192-1.044.192-2.243v-15.749c0-1.069-.048-1.747-.143-2.036-.099-.287-.25-.502-.461-.646-.209-.146-.493-.218-.851-.218-.292 0-.656.085-1.1.254l-.215-.579zm5.787 2.888v6.202c0 1.342.056 2.225.162 2.646.168.702.582 1.317 1.236 1.852.656.531 1.483.799 2.481.799 1.203 0 2.18-.477 2.924-1.416.974-1.234 1.463-2.968 1.463-5.205 0-2.537-.557-4.489-1.658-5.855-.774-.944-1.687-1.415-2.746-1.415-.577 0-1.149.147-1.716.435-.432.217-1.148.869-2.146 1.957zM155.762 17.22v5.662h-.663c-.449-1.779-1.027-2.987-1.732-3.627-.701-.641-1.599-.962-2.69-.962-.829 0-1.496.225-2.005.67-.51.445-.762.939-.762 1.479 0 .676.179 1.254.548 1.737.353.493 1.101 1.02 2.244 1.573l2.633 1.282c2.446 1.194 3.666 2.769 3.666 4.722 0 1.51-.564 2.724-1.694 3.645-1.128.925-2.392 1.384-3.79 1.384-1.004 0-2.15-.174-3.444-.525-.392-.118-.714-.176-.965-.176-.275 0-.489.152-.643.452h-.665v-5.908h.664c.33 1.683.968 2.952 1.908 3.805.938.853 1.992 1.281 3.156 1.281.825 0 1.492-.246 2.009-.733.518-.488.777-1.075.777-1.761 0-.831-.29-1.531-.871-2.097-.578-.564-1.742-1.282-3.488-2.146-1.743-.864-2.888-1.648-3.427-2.348-.541-.688-.811-1.558-.811-2.609 0-1.363.461-2.506 1.39-3.424.928-.917 2.126-1.375 3.597-1.375.644 0 1.43.141 2.351.424.609.185 1.017.277 1.22.277.188 0 .338-.042.449-.129.104-.087.229-.276.375-.572h.663z"/></g></svg>