<svg xmlns="http://www.w3.org/2000/svg" width="348.562" height="84.84"><path d="M45.697 13.226c.326.395.391.831-.148 1.279-.649.542-1.553.087-2.334-.053-3.768-.715-15.183-2.752-19.686.99-2.464 2.056-1.605 4.682-4.169 6.815-2.573 2.138-4.991.813-7.463 2.872-4.5 3.743-4.555 15.342-4.542 19.173.005.798.288 1.767-.365 2.309-.536.447-.959.305-1.281-.085-1.21-1.45-8.3-25.895 3.864-36.024 12.159-10.126 34.909 1.272 36.124 2.724zm-40.629-3.089c2.801 0 5.069-2.269 5.069-5.073 0-2.797-2.268-5.064-5.069-5.064-2.798 0-5.068 2.267-5.068 5.064 0 2.805 2.27 5.073 5.068 5.073z" fill="#F37321"/><path d="M57.433 66.57c-.5.077-.911-.091-1.023-.786-.124-.836.724-1.376 1.255-1.974 2.544-2.858 10.177-11.59 9.281-17.383-.493-3.17-3.181-3.779-3.693-7.081-.516-3.307 1.872-4.701 1.379-7.873-.895-5.793-10.812-11.806-14.105-13.767-.683-.404-1.661-.664-1.789-1.501-.107-.694.236-.979.734-1.059 1.873-.289 26.475 6.214 28.9 21.86 2.417 15.64-19.071 29.276-20.939 29.564zm27.891-25.568c2.797 0 5.068-2.272 5.068-5.068 0-2.8-2.271-5.067-5.068-5.067-2.8 0-5.074 2.267-5.074 5.067 0 2.795 2.274 5.068 5.074 5.068z" fill="#00A389"/><path d="M6.174 50.729c.19-.472.539-.736 1.194-.483.787.304.831 1.314 1.075 2.071 1.19 3.643 4.916 16.852 16.646 21.457 11.728 4.601 23.442-2.559 26.791-4.411.698-.392 1.41-1.101 2.196-.793.653.257.731.69.544 1.169-.69 1.755-18.695 19.741-33.43 13.96-14.732-5.78-15.698-31.21-15.016-32.97zm21.48 21.037c2.796.014 5.082-2.229 5.101-5.028.025-2.802-2.227-5.096-5.024-5.113-2.796-.021-5.082 2.225-5.106 5.028-.022 2.801 2.226 5.082 5.029 5.113z" fill="#005CAB"/><g fill="#005CAB"><path d="M144.591 11.636v18.811h-1.468c-.485-3.605-1.351-6.481-2.601-8.62-1.249-2.14-3.027-3.837-5.336-5.091-2.309-1.256-4.701-1.889-7.172-1.889-2.794 0-5.102.851-6.929 2.545-1.826 1.698-2.737 3.626-2.737 5.788 0 1.656.575 3.164 1.729 4.524 1.657 2.006 5.611 4.678 11.854 8.015 5.09 2.724 8.565 4.809 10.429 6.268 1.862 1.453 3.296 3.167 4.301 5.145 1.006 1.975 1.508 4.049 1.508 6.21 0 4.109-1.602 7.657-4.805 10.632-3.204 2.979-7.328 4.464-12.368 4.464-1.584 0-3.072-.119-4.466-.36-.832-.141-2.554-.632-5.17-1.483-2.616-.852-4.268-1.276-4.966-1.276-.672 0-1.2.206-1.589.61-.39.405-.677 1.243-.863 2.51h-1.47v-18.629h1.47c.696 3.9 1.634 6.821 2.812 8.758 1.18 1.934 2.984 3.547 5.415 4.828 2.426 1.279 5.087 1.921 7.982 1.921 3.351 0 6-.88 7.944-2.642 1.943-1.765 2.917-3.846 2.917-6.247 0-1.335-.37-2.688-1.104-4.049-.74-1.359-1.881-2.629-3.435-3.804-1.047-.802-3.901-2.502-8.566-5.104-4.666-2.597-7.984-4.67-9.958-6.221-1.973-1.55-3.473-3.261-4.494-5.132-1.021-1.871-1.531-3.926-1.531-6.171 0-3.9 1.504-7.263 4.513-10.081 3.009-2.819 6.839-4.232 11.491-4.232 2.903 0 5.977.709 9.228 2.12 1.51.666 2.57.998 3.186.998.698 0 1.271-.206 1.712-.619.445-.412.799-1.247 1.07-2.499h1.467z"/><path d="M184.919 53.305c-.99 4.857-2.94 8.582-5.839 11.165-2.903 2.588-6.113 3.876-9.635 3.876-4.188 0-7.843-1.753-10.958-5.262-3.116-3.505-4.676-8.244-4.676-14.219 0-5.784 1.729-10.482 5.186-14.096 3.46-3.613 7.605-5.421 12.448-5.421 3.63 0 6.614.952 8.956 2.861 2.34 1.908 3.512 3.887 3.512 5.94 0 1.015-.328 1.837-.988 2.465-.659.626-1.582.938-2.769.938-1.589 0-2.771-.514-3.546-1.538-.491-.569-.808-1.648-.959-3.241-.147-1.591-.692-2.803-1.635-3.642-.939-.809-2.247-1.214-3.915-1.214-2.69 0-4.86.994-6.502 2.988-2.182 2.637-3.27 6.119-3.27 10.45 0 4.417 1.079 8.309 3.242 11.688 2.159 3.373 5.083 5.062 8.76 5.062 2.629 0 4.993-.877 7.092-2.634 1.472-1.225 2.912-3.472 4.303-6.728l1.193.562z"/><path d="M200.696 29.348v8.245c3.062-5.496 6.201-8.245 9.424-8.245 1.463 0 2.674.447 3.637 1.34.957.896 1.436 1.93 1.436 3.104 0 1.041-.344 1.921-1.041 2.642-.699.72-1.523 1.079-2.488 1.079-.934 0-1.98-.46-3.135-1.374-1.158-.918-2.016-1.379-2.568-1.379-.484 0-1 .27-1.557.802-1.199 1.095-2.43 2.897-3.707 5.414v17.643c0 2.049.258 3.594.773 4.643.352.725.977 1.326 1.873 1.803.895.476 2.186.714 3.865.714v1.469h-18.992v-1.469c1.871 0 3.268-.296 4.174-.89.668-.434 1.141-1.121 1.406-2.065.135-.458.201-1.771.201-3.926v-14.23c0-4.261-.09-6.804-.262-7.616-.17-.813-.494-1.408-.959-1.782-.463-.376-1.043-.561-1.734-.561-.826 0-1.758.199-2.795.603l-.398-1.471 11.154-4.495h1.693z"/><path d="M231.203 29.348v29.549c0 2.309.16 3.843.492 4.605.328.767.818 1.333 1.467 1.715.645.373 1.824.561 3.547.561v1.469h-17.803v-1.469c1.779 0 2.98-.175 3.594-.524.613-.349 1.102-.923 1.461-1.731.357-.805.543-2.347.543-4.625v-14.043c0-4.032-.121-6.648-.361-7.836-.186-.866-.482-1.471-.879-1.807-.402-.333-.947-.502-1.637-.502-.748 0-1.648.199-2.717.603l-.559-1.471 11.084-4.495h1.768zm-3.332-19.182c1.129 0 2.086.396 2.877 1.189.791.792 1.188 1.749 1.188 2.876 0 1.125-.396 2.09-1.188 2.895-.791.808-1.748 1.208-2.877 1.208-1.125 0-2.094-.401-2.9-1.208-.801-.805-1.201-1.77-1.201-2.895 0-1.127.393-2.084 1.182-2.876.792-.793 1.765-1.189 2.919-1.189z"/><path d="M238.015 34.027l11.32-4.497h1.527v8.534c1.896-3.224 3.799-5.484 5.713-6.778s3.924-1.938 6.041-1.938c3.688 0 6.76 1.445 9.221 4.334 3.023 3.54 4.533 8.144 4.533 13.82 0 6.347-1.818 11.592-5.453 15.741-2.996 3.404-6.764 5.102-11.312 5.102-1.979 0-3.689-.276-5.131-.836-1.07-.397-2.277-1.197-3.611-2.395v11.215c0 2.531.152 4.137.461 4.823.311.686.846 1.229 1.611 1.639.762.4 2.152.604 4.168.604v1.468h-19.363v-1.468h1.01c1.482.028 2.748-.253 3.799-.839.512-.297.906-.771 1.189-1.424.283-.653.428-2.318.428-4.985v-34.96c0-2.373-.109-3.877-.32-4.518-.215-.638-.557-1.116-1.02-1.436-.467-.324-1.096-.483-1.895-.483-.643 0-1.453.188-2.438.563l-.478-1.286zm12.847 6.413v13.768c0 2.978.117 4.936.359 5.876.373 1.555 1.287 2.924 2.746 4.108 1.457 1.179 3.289 1.771 5.51 1.771 2.666 0 4.834-1.052 6.49-3.145 2.166-2.734 3.246-6.584 3.246-11.553 0-5.632-1.232-9.966-3.686-12.999-1.711-2.095-3.742-3.14-6.088-3.14-1.285 0-2.555.326-3.809.965-.963.486-2.553 1.934-4.768 4.349z"/><path d="M279.124 34.027l11.322-4.497h1.525v8.534c1.898-3.224 3.805-5.484 5.717-6.778s3.922-1.938 6.035-1.938c3.691 0 6.762 1.445 9.225 4.334 3.023 3.54 4.533 8.144 4.533 13.82 0 6.347-1.822 11.592-5.457 15.741-2.992 3.404-6.762 5.102-11.311 5.102-1.977 0-3.689-.276-5.133-.836-1.068-.397-2.275-1.197-3.609-2.395v11.215c0 2.531.15 4.137.463 4.823.309.686.846 1.229 1.607 1.639.764.4 2.156.604 4.168.604v1.468h-19.361v-1.468h1.01c1.482.028 2.748-.253 3.801-.839.51-.297.904-.771 1.188-1.424.287-.653.426-2.318.426-4.983v-34.962c0-2.373-.105-3.877-.318-4.518-.215-.638-.555-1.116-1.021-1.436-.463-.324-1.094-.483-1.891-.483-.643 0-1.455.188-2.439.563l-.48-1.286zm12.848 6.413v13.768c0 2.978.123 4.938.361 5.876.373 1.555 1.287 2.924 2.742 4.108 1.459 1.179 3.295 1.771 5.512 1.771 2.672 0 4.834-1.052 6.49-3.145 2.166-2.734 3.246-6.584 3.246-11.553 0-5.632-1.23-9.966-3.682-12.999-1.715-2.095-3.744-3.14-6.094-3.14-1.285 0-2.553.326-3.807.965-.962.486-2.553 1.934-4.768 4.349z"/><path d="M345.812 29.348v12.572h-1.471c-1-3.949-2.281-6.633-3.846-8.051-1.562-1.424-3.557-2.136-5.973-2.136-1.84 0-3.324.497-4.455 1.485-1.129.991-1.691 2.086-1.691 3.287 0 1.5.4 2.785 1.213 3.855.783 1.095 2.447 2.263 4.988 3.493l5.846 2.846c5.428 2.652 8.139 6.147 8.139 10.482 0 3.35-1.254 6.046-3.762 8.093-2.506 2.048-5.311 3.07-8.416 3.07-2.229 0-4.773-.387-7.643-1.171-.875-.257-1.59-.388-2.148-.388-.609 0-1.084.338-1.428 1.008h-1.471v-13.118h1.471c.738 3.737 2.15 6.553 4.236 8.442 2.086 1.896 4.426 2.846 7.014 2.846 1.826 0 3.311-.54 4.459-1.629 1.148-1.081 1.723-2.383 1.723-3.909 0-1.844-.645-3.396-1.932-4.65-1.285-1.255-3.867-2.848-7.742-4.765-3.877-1.916-6.418-3.657-7.613-5.211-1.201-1.53-1.795-3.458-1.795-5.793 0-3.027 1.023-5.564 3.082-7.603 2.061-2.036 4.719-3.055 7.984-3.055 1.434 0 3.174.316 5.221.943 1.352.41 2.258.615 2.705.615.422 0 .756-.092 1-.286.234-.194.514-.615.834-1.272h1.471z"/></g></svg>