<svg xmlns="http://www.w3.org/2000/svg" width="1280" height="120"><path d="M529.637 66.365c67.762-7.786 131.204-32.365 189.418-66.365h-219.889c-37.689 21-75.395 40.233-112.995 58.479 44.082 8.376 90.055 13.757 143.466 7.886z" fill="#00BDE1"/><path d="M127.772 29.244c-58.318 6.734-95.772 22.174-127.772 39.853v50.903h246.998c46.07-18 92.397-38.675 139.034-61.32-80.998-15.382-155.742-41.159-258.26-29.436z" fill="#00BDE1"/><path d="M386.171 58.68c37.6-18.246 75.306-37.68 112.995-58.68h-499.166v69.097c32-17.679 69.454-33.319 127.772-40.053 102.518-11.723 177.402 14.254 258.399 29.636z" fill="#77CFE9"/><path d="M1280 0h-560.945c-58.214 34-121.655 58.579-189.418 66.365-53.411 5.871-99.384.49-143.466-7.887-46.637 22.647-93.103 43.522-139.173 61.522h1033.002v-120z" fill="#00AEDA"/></svg>