<svg xmlns="http://www.w3.org/2000/svg" width="150" height="150" viewBox="0 0 150 150"><g fill="#8CBAD4"><path d="M34.084 111.824h14.878c3.271 0 5.951-2.678 5.951-5.953v-32.726c0-3.275-2.681-5.953-5.951-5.953h-14.878c-3.274 0-5.951 2.678-5.951 5.953v32.727c0 3.274 2.677 5.952 5.951 5.952zM67.563 111.824h14.875c3.273 0 5.951-2.678 5.951-5.953v-75.133c0-3.275-2.678-5.953-5.951-5.953h-14.875c-3.271 0-5.951 2.678-5.951 5.953v75.133c0 3.275 2.679 5.953 5.951 5.953zM115.916 44.498h-14.879c-3.271 0-5.951 2.678-5.951 5.953v55.419c0 3.274 2.68 5.953 5.951 5.953h14.879c3.271 0 5.951-2.679 5.951-5.953v-55.419c0-3.275-2.678-5.953-5.951-5.953zM28.133 118.52h93.734v6.695h-93.734z"/></g></svg>