<svg xmlns="http://www.w3.org/2000/svg" width="150" height="150" viewBox="0 0 150 150"><g fill="#8CBAD4"><path d="M104.941 37.246v-11.717c0-3.596-2.914-6.51-6.508-6.51-3.598 0-6.512 2.914-6.512 6.51v11.717h-33.846v-11.717c0-3.596-2.914-6.51-6.511-6.51-3.596 0-6.51 2.914-6.51 6.51v11.717h-16.921v93.734h93.734v-93.734h-16.926zm9.114 85.924h-78.112v-50.774h78.112v50.774zM51.4 94.994h6.595v19.062c0 .719.582 1.301 1.302 1.301h6.369c.72 0 1.302-.582 1.302-1.301v-31.398c0-.719-.582-1.301-1.302-1.301h-5.068c-.646 0-1.191.471-1.288 1.105-.146.988-.45 1.812-.896 2.449-.462.65-1.03 1.188-1.69 1.584-.689.414-1.482.707-2.354.869-.806.148-1.65.229-2.516.229l-.414-.009c-.37-.024-.691.125-.941.369-.252.244-.396.582-.396.935v4.799c-.004.723.579 1.307 1.297 1.307zM87.316 95.971c-.582.539-1.232 1.039-1.939 1.488-.793.504-1.541 1.002-2.238 1.484-1.355.938-2.646 1.854-3.873 2.766-1.285.949-2.422 2.008-3.381 3.143-.985 1.164-1.775 2.504-2.349 3.979-.58 1.486-.874 3.246-.874 5.229 0 .719.582 1.301 1.302 1.301h23.054c.725 0 1.307-.582 1.307-1.301v-5.474c0-.722-.582-1.306-1.307-1.306h-11.94c.193-.174.395-.342.598-.502.977-.776 1.998-1.517 3.043-2.192 1.078-.707 2.156-1.422 3.223-2.146 1.136-.767 2.164-1.635 3.062-2.584.938-.985 1.699-2.131 2.262-3.394.582-1.297.879-2.848.879-4.61 0-1.709-.338-3.285-1.002-4.687-.658-1.39-1.562-2.574-2.688-3.531-1.107-.938-2.402-1.663-3.85-2.161-3.299-1.138-7.207-.935-10.061.329-1.629.724-3.004 1.75-4.084 3.052-1.062 1.278-1.869 2.787-2.396 4.479-.52 1.676-.75 3.502-.685 5.433.021.7.599 1.258 1.301 1.258h6.102c.721 0 1.303-.582 1.303-1.301 0-.748.074-1.521.225-2.287.138-.724.361-1.356.689-1.949.289-.521.66-.937 1.133-1.254.434-.289.967-.431 1.631-.431 1.031 0 1.846.302 2.48.912.623.604.926 1.463.926 2.629 0 .73-.152 1.355-.477 1.904-.366.634-.829 1.214-1.376 1.724z"/></g></svg>