<?xml version="1.0" encoding="utf-8"?>
<!-- Generator: Adobe Illustrator 16.0.0, SVG Export Plug-In . SVG Version: 6.00 Build 0)  -->
<!DOCTYPE svg PUBLIC "-//W3C//DTD SVG 1.1//EN" "http://www.w3.org/Graphics/SVG/1.1/DTD/svg11.dtd">
<svg version="1.1" id="Layer_1" xmlns="http://www.w3.org/2000/svg" xmlns:xlink="http://www.w3.org/1999/xlink" x="0px" y="0px"
	 width="150px" height="150px" viewBox="0 0 150 150" enable-background="new 0 0 150 150" xml:space="preserve">
<g>
	<circle fill="#8CBAD4" cx="38.509" cy="31.721" r="5.872"/>
	<path fill="#8CBAD4" d="M40.738,79.855c0.752-0.627,0.426-1.75,0.422-2.674c-0.016-4.438,0.051-17.877,5.265-22.218
		c2.86-2.382,5.665-0.846,8.645-3.322c2.973-2.479,1.977-5.519,4.831-7.899c5.218-4.339,18.443-1.97,22.808-1.149
		c0.904,0.172,1.952,0.694,2.703,0.065c0.625-0.519,0.552-1.027,0.172-1.479c-1.402-1.687-27.764-14.893-41.854-3.156
		c-14.09,11.732-5.875,40.051-4.474,41.729C39.625,80.21,40.113,80.378,40.738,79.855L40.738,79.855z"/>
	<circle fill="#8CBAD4" cx="131.491" cy="67.483" r="5.872"/>
	<path fill="#8CBAD4" d="M89.957,43.402c-0.574,0.091-0.979,0.421-0.85,1.226c0.146,0.968,1.276,1.269,2.069,1.738
		c3.813,2.27,15.302,9.243,16.341,15.95c0.569,3.674-2.188,5.295-1.599,9.121s3.711,4.529,4.276,8.206
		c1.035,6.713-7.807,16.825-10.756,20.146c-0.611,0.688-1.596,1.312-1.447,2.286c0.125,0.804,0.604,1.002,1.181,0.91
		c2.168-0.336,27.062-16.141,24.259-34.258C120.625,50.603,92.125,43.068,89.957,43.402z"/>
	<path fill="#8CBAD4" d="M95.288,105.291c-0.907-0.354-1.737,0.473-2.543,0.918c-3.884,2.152-17.452,10.448-31.041,5.118
		c-13.591-5.332-17.902-20.644-19.283-24.861c-0.286-0.875-0.336-2.043-1.247-2.397c-0.755-0.297-1.163,0.015-1.383,0.562
		c-0.795,2.041,0.328,31.504,17.398,38.201c17.069,6.694,37.927-14.146,38.73-16.183C96.137,106.096,96.048,105.591,95.288,105.291
		L95.288,105.291z"/>
	<path fill="#8CBAD4" d="M64.765,97.246c-3.238-0.021-5.89,2.583-5.914,5.833c-0.024,3.237,2.581,5.889,5.827,5.917
		c3.238,0.021,5.889-2.581,5.911-5.831C70.618,99.927,68.01,97.275,64.765,97.246L64.765,97.246z"/>
</g>
</svg>
