<svg xmlns="http://www.w3.org/2000/svg" width="150" height="150" viewBox="0 0 150 150"><g fill="#8CBAD4"><path d="M139.188 110.279c-1.299-14.045-20.812-22.635-23.918-23.934-3.131-1.298-2.873-3.642-2.873-3.642s.041-.931.26-3.117c.519-5.113 4.164-9.885 4.164-9.885s6.602-7.326 5.465-20.037c-1.793-19.949-18.215-19.771-18.215-19.771s-16.43-.179-18.213 19.771c-1.14 12.711 5.467 20.037 5.467 20.037s3.637 4.772 4.168 9.885c.209 2.188.252 3.117.252 3.117s.252 2.344-2.859 3.642c-3.125 1.299-22.637 9.889-23.938 23.934 0 0-.779 9.895-.52 12.75h71.277c.253-2.855-.517-12.75-.517-12.75zM47.149 33.389l-1.23-6.393c-2.123.41-5.307 1.35-8.406 3.506l3.717 5.346c2.164-1.508 4.414-2.17 5.919-2.459zM29.114 62.596c1.162 3.67 2.729 6.318 3.836 7.896l5.326-3.744c-.693-.984-1.996-3.086-2.959-6.119l-6.203 1.967zM38.155 38.746l-5.115-4.023c-1.775 2.261-3.143 4.951-4.059 7.996l6.232 1.873c.683-2.262 1.672-4.23 2.942-5.846zM10.649 111.621c-.188 1.857-.408 4.512-.404 6.586 0 .641.021 1.229.068 1.725l.396 2.951h2.965l-.061-3.26 3.178-.297c-.025-.322-.037-.701-.037-1.123-.004-1.41.129-3.52.373-5.932l-6.478-.65zM64.165 49.962c.084.908.119 1.783.119 2.623-.002 1.164-.074 2.315-.211 3.42l6.459.81c.17-1.369.26-2.787.262-4.226 0-1.03-.045-2.104-.145-3.221-.039-.396-.076-.781-.125-1.158l-6.459.819c.039.306.073.62.1.933zM60.176 66.664l5.352 3.707c1.1-1.591 2.65-4.252 3.791-7.908l-6.215-1.938c-.945 3.022-2.24 5.144-2.928 6.139zM60.753 30.419c-3.125-2.142-6.311-3.058-8.434-3.449l-1.187 6.402c1.507.276 3.759.922 5.94 2.418l3.681-5.371zM15.96 97.998c-2 2.523-3.443 5.162-4.293 7.848l6.209 1.963c.607-1.928 1.68-3.863 3.188-5.762l-5.104-4.049zM63.138 44.483l6.225-1.901c-.928-3.041-2.312-5.724-4.105-7.978l-5.092 4.06c1.284 1.608 2.282 3.565 2.972 5.819zM34.327 56.119c-.146-1.154-.225-2.341-.225-3.527 0-.846.035-1.721.119-2.633l.084-.832-6.464-.763c-.041.332-.073.671-.104 1.009-.1 1.11-.146 2.187-.146 3.219 0 1.465.097 2.935.28 4.361l6.456-.834zM61.021 79.918c.164-1.641.803-3.555 1.846-5.539l-5.762-3.031c-1.447 2.754-2.311 5.416-2.562 7.908l-.07.723 6.479.609.069-.67zM44.919 116.375h7.812v6.508h-7.812zM57.938 116.375h7.811v6.508h-7.811zM78.4 93.736c-1.924-1.746-4.159-3.445-6.642-5.049l-3.534 5.467c2.188 1.41 4.137 2.893 5.797 4.404l4.379-4.822zM60.88 82.887l-4.602 4.604c.768.77 1.729 1.396 2.867 1.862.68.281 2.51 1.07 4.816 2.301l3.062-5.739c-2.467-1.315-4.438-2.179-5.392-2.572-.443-.189-.662-.366-.751-.456zM31.901 116.375h7.811v6.508h-7.811zM18.882 116.375h7.812v6.508h-7.812zM19.886 93.826l4.385 4.811c1.666-1.518 3.612-3.004 5.789-4.414l-3.545-5.461c-2.471 1.603-4.703 3.306-6.629 5.064zM41.353 71.479l-5.777 3c1.012 1.947 1.635 3.832 1.801 5.417l.068.771 6.488-.521-.082-.896c-.254-2.453-1.096-5.066-2.498-7.771zM36.76 83.342c-.983.408-3.007 1.293-5.517 2.637l3.07 5.736c2.266-1.213 4.064-2 4.938-2.361 1.05-.436 1.957-1.01 2.697-1.709l-4.471-4.731c-.107.104-.324.264-.717.428z"/></g></svg>