<svg xmlns="http://www.w3.org/2000/svg" width="150" height="150" viewBox="0 0 150 150"><g fill="#8CBAD4"><path d="M43.213 95.309c-6.38 0-11.553 5.172-11.553 11.551 0 6.384 5.173 11.558 11.553 11.558 6.376 0 11.553-5.174 11.553-11.558-.002-6.38-5.177-11.551-11.553-11.551zM31.674 61.057v16.677c10.827 0 21 4.234 28.647 11.918 7.658 7.695 11.874 17.938 11.874 28.845h16.682c0-31.675-25.663-57.44-57.203-57.44zM31.697 31.488v16.68c38.577 0 69.963 31.555 69.963 70.344h16.68c0-47.985-38.867-87.024-86.643-87.024z"/></g></svg>