<svg xmlns="http://www.w3.org/2000/svg" width="150" height="150" viewBox="0 0 150 150"><g fill="#8CBAD4"><path d="M32.587 100.938c16.696.074 25.143-.342 39.722 10.162v-65.678c-14.58-10.502-23.024-10.089-39.722-10.163v65.679zM25.664 107.824v-64.103h-2.119c-2.855 0-5.19 2.337-5.19 5.191v60.636c0 2.854 2.335 5.188 5.19 5.188h41.822c-10.442-6.784-17.246-6.832-30.803-6.877l-8.9-.035zM117.415 35.259c-16.694.074-25.144-.339-39.715 10.163v65.678c14.569-10.504 23.021-10.088 39.715-10.162v-65.679zM126.456 43.721h-2.119v64.103l-8.901.039c-13.554.045-20.357.092-30.797 6.877h41.817c2.854 0 5.188-2.336 5.188-5.189v-60.636c.002-2.857-2.332-5.194-5.188-5.194z"/></g></svg>