<svg xmlns="http://www.w3.org/2000/svg" width="150" height="150" viewBox="0 0 150 150"><path fill="#8CBAD4" d="M115.221 113.729c-1.488-16.086-23.832-25.922-27.396-27.408-3.584-1.483-3.287-4.17-3.287-4.17s.045-1.062.297-3.569c.597-5.854 4.771-11.321 4.771-11.321s7.562-8.388 6.26-22.949c-2.057-22.848-20.861-22.643-20.861-22.643s-18.819-.207-20.862 22.641c-1.305 14.562 6.266 22.949 6.266 22.949s4.162 5.467 4.77 11.321c.242 2.508.29 3.57.29 3.57s.29 2.686-3.275 4.17c-3.58 1.486-25.924 11.322-27.414 27.408 0 0-.894 11.332-.595 14.604h81.639c.28-3.271-.603-14.603-.603-14.603z"/></svg>