<svg xmlns="http://www.w3.org/2000/svg" width="150" height="150" viewBox="0 0 150 150"><g fill="#8CBAD4"><path d="M129.912 58.336h-13.328v-13.331c0-1.833-1.498-3.332-3.332-3.332h-10c-1.834 0-3.328 1.499-3.328 3.332v13.331h-13.338c-1.828 0-3.33 1.499-3.33 3.333v9.999c0 1.832 1.502 3.331 3.33 3.331h13.338v13.333c0 1.832 1.494 3.332 3.328 3.332h10c1.834 0 3.332-1.5 3.332-3.332v-13.333h13.328c1.834 0 3.336-1.499 3.336-3.331v-9.999c0-1.834-1.502-3.333-3.336-3.333zM104.99 99.921h-13.33v-13.332c0-1.832-1.496-3.328-3.328-3.328h-10.004c-1.834 0-3.328 1.496-3.328 3.328v13.332h-13.328c-1.836 0-3.336 1.5-3.336 3.336v9.992c0 1.836 1.5 3.336 3.336 3.336h13.328v13.332c0 1.832 1.494 3.332 3.328 3.332h10.004c1.832 0 3.328-1.5 3.328-3.332v-13.332h13.33c1.834 0 3.334-1.5 3.334-3.336v-9.992c0-1.836-1.5-3.336-3.334-3.336zM45.004 50.077h13.332v13.332c0 1.832 1.5 3.332 3.336 3.332h9.992c1.832 0 3.336-1.5 3.336-3.332v-13.332h13.332c1.832 0 3.328-1.498 3.328-3.332v-9.998c0-1.833-1.496-3.332-3.328-3.332h-13.332v-13.332c0-1.834-1.504-3.332-3.336-3.332h-9.992c-1.836 0-3.336 1.498-3.336 3.332v13.332h-13.332c-1.834 0-3.328 1.499-3.328 3.332v9.998c0 1.834 1.494 3.332 3.328 3.332zM66.744 88.331v-10c0-1.832-1.504-3.333-3.336-3.333h-13.332v-13.33c0-1.834-1.5-3.333-3.334-3.333h-9.994c-1.834 0-3.336 1.499-3.336 3.333v13.33h-13.33c-1.836 0-3.33 1.5-3.33 3.333v10c0 1.832 1.494 3.332 3.33 3.332h13.33v13.33c0 1.834 1.502 3.334 3.336 3.334h9.994c1.834 0 3.334-1.5 3.334-3.334v-13.33h13.332c1.832 0 3.336-1.5 3.336-3.332z"/></g></svg>